<svg xmlns="http://www.w3.org/2000/svg" width="1000" height="760" viewBox="0 0 1000 760"><rect width="1000" height="760" fill="#f6f5ef"/><g fill="none" stroke="#768279" stroke-width="2"><path d="M70 55h860M70 176h860M70 680h860"/><rect x="70" y="276" width="860" height="58"/><path d="M70 389h860m0 55H70m0 55h860m0 55H70m0 55h860"/><rect x="731" y="220" width="199" height="40"/></g><g fill="#173d35" font-family="Arial,sans-serif"><text x="94" y="89" font-size="22" font-weight="700">REPARTIDOR. / Marca</text><text x="70" y="147" font-size="21" font-weight="700">Los puntos sobre la mesa.</text><text x="70" y="205" font-size="13">03 CLASIFICACIÓN — puntos acumulados de todas las jornadas registradas</text><text x="751" y="246" font-size="12">↓ DESCARGAR IMAGEN PNG</text><text x="91" y="311" font-size="12">POS.</text><text x="180" y="311" font-size="12">JUGADOR / A</text><text x="640" y="311" font-size="12">PJ</text><text x="706" y="311" font-size="12">G</text><text x="772" y="311" font-size="12">E</text><text x="838" y="311" font-size="12">P</text><text x="886" y="311" font-size="12">PTS</text><text x="92" y="372" font-size="15">01</text><text x="180" y="372" font-size="15" font-weight="700">Jugador 1</text><text x="640" y="372" font-size="14">4</text><text x="706" y="372" font-size="14">3</text><text x="772" y="372" font-size="14">1</text><text x="838" y="372" font-size="14">0</text><text x="891" y="372" font-size="18" font-weight="700">11</text><text x="92" y="426" font-size="15">02</text><text x="180" y="426" font-size="15">Jugador 2</text><text x="640" y="426" font-size="14">4</text><text x="706" y="426" font-size="14">2</text><text x="772" y="426" font-size="14">1</text><text x="838" y="426" font-size="14">1</text><text x="891" y="426" font-size="18">9</text><text x="92" y="480" font-size="15">03</text><text x="180" y="480" font-size="15">Jugador 3</text><text x="640" y="480" font-size="14">4</text><text x="706" y="480" font-size="14">1</text><text x="772" y="480" font-size="14">2</text><text x="838" y="480" font-size="14">1</text><text x="891" y="480" font-size="18">9</text><text x="92" y="534" font-size="15">04</text><text x="180" y="534" font-size="15">Jugador 4</text><text x="640" y="534" font-size="14">4</text><text x="706" y="534" font-size="14">1</text><text x="772" y="534" font-size="14">0</text><text x="838" y="534" font-size="14">3</text><text x="891" y="534" font-size="18">7</text><text x="179" y="625" font-size="12">G GANADOS · 3 PTS     ✳     E EMPATADOS · 2 PTS     ✳     P PERDIDOS · 1 PT</text><text x="71" y="714" font-size="11">BOCETO PREVIO · VISTA DE CLASIFICACIÓN</text></g></svg>
